<svg xmlns="http://www.w3.org/2000/svg" viewBox="-6 -4 132 146" fill="none">
  <defs>
    <clipPath id="sc">
      <path d="M60 5 L107 23 L107 69 C107 101 60 131 60 131 C60 131 13 101 13 69 L13 23 Z"/>
    </clipPath>
  </defs>

  <!-- Q top-left: navy -->
  <rect x="13" y="5" width="47" height="67" fill="#1a2744" clip-path="url(#sc)"/>
  <!-- Q top-right: coral -->
  <rect x="60" y="5" width="47" height="67" fill="#c85a52" clip-path="url(#sc)"/>
  <!-- Q bottom-left: gold -->
  <rect x="13" y="72" width="47" height="59" fill="#c9952a" clip-path="url(#sc)"/>
  <!-- Q bottom-right: teal -->
  <rect x="60" y="72" width="47" height="59" fill="#1e7a6a" clip-path="url(#sc)"/>

  <!-- Dividers -->
  <rect x="57" y="5" width="6" height="131" fill="#1a2744" clip-path="url(#sc)"/>
  <rect x="13" y="69" width="94" height="6" fill="#1a2744" clip-path="url(#sc)"/>

  <!-- Center diamond -->
  <rect x="55" y="67" width="10" height="10" fill="white" transform="rotate(45 60 72)" clip-path="url(#sc)"/>

  <!-- House (top-left) -->
  <polygon points="36,26 21,40 51,40" fill="white" clip-path="url(#sc)"/>
  <rect x="24" y="40" width="24" height="17" fill="white" clip-path="url(#sc)"/>
  <rect x="33" y="48" width="8" height="9" fill="#1a2744" clip-path="url(#sc)"/>

  <!-- Plus (top-right) -->
  <rect x="75" y="24" width="9" height="30" rx="2" fill="white" clip-path="url(#sc)"/>
  <rect x="65" y="33" width="29" height="11" rx="2" fill="white" clip-path="url(#sc)"/>

  <!-- Lock (bottom-left) -->
  <path d="M29 93 C29 84 51 84 51 93" stroke="white" stroke-width="5.5" fill="none" stroke-linecap="round" clip-path="url(#sc)"/>
  <rect x="24" y="93" width="32" height="24" rx="5" fill="white" clip-path="url(#sc)"/>
  <circle cx="40" cy="103" r="4.5" fill="#c9952a" clip-path="url(#sc)"/>
  <rect x="38" y="105" width="4" height="6" rx="1" fill="#c9952a" clip-path="url(#sc)"/>

  <!-- Pin (bottom-right) -->
  <ellipse cx="83" cy="83" rx="9" ry="10" fill="white" clip-path="url(#sc)"/>
  <circle cx="83" cy="83" r="4" fill="#1e7a6a" clip-path="url(#sc)"/>
  <path d="M83 93 L77 112" stroke="white" stroke-width="5" stroke-linecap="round" clip-path="url(#sc)"/>

  <!-- Shield border -->
  <path d="M60 5 L107 23 L107 69 C107 101 60 131 60 131 C60 131 13 101 13 69 L13 23 Z"
        fill="none" stroke="rgba(255,255,255,0.2)" stroke-width="1.5"/>
</svg>
