<svg xmlns="http://www.w3.org/2000/svg" viewBox="0 0 200 232" fill="none">
  <defs>
    <clipPath id="sc">
      <!-- Flat-top shield: straight sides top + bottom curves -->
      <path d="M18 36 L182 36 L182 132 C182 174 140 204 100 220 C60 204 18 174 18 132 Z"/>
    </clipPath>
  </defs>

  <!-- ── Quadrant fills ── -->
  <rect x="0"   y="0"   width="100" height="132" fill="#1a2744" clip-path="url(#sc)"/>
  <rect x="100" y="0"   width="100" height="132" fill="#c85a52" clip-path="url(#sc)"/>
  <rect x="0"   y="132" width="100" height="100" fill="#d4a843" clip-path="url(#sc)"/>
  <rect x="100" y="132" width="100" height="100" fill="#2a7a6e" clip-path="url(#sc)"/>

  <!-- ── Dividers ── -->
  <rect x="97"  y="0"   width="6"   height="232" fill="rgba(255,255,255,0.22)" clip-path="url(#sc)"/>
  <rect x="0"   y="129" width="200" height="6"   fill="rgba(255,255,255,0.22)" clip-path="url(#sc)"/>

  <!-- ── Centre diamond ── -->
  <polygon points="100,120 113,132 100,144 87,132" fill="white" clip-path="url(#sc)"/>

  <!-- ══ TL – HOUSE (navy) ══ -->
  <!-- Roof -->
  <polygon points="59,52 34,74 84,74" fill="white" clip-path="url(#sc)"/>
  <!-- Body -->
  <rect x="37" y="74" width="44" height="38" fill="white" clip-path="url(#sc)"/>
  <!-- Door cutout (navy) -->
  <rect x="47" y="83" width="24" height="29" rx="2" fill="#1a2744" clip-path="url(#sc)"/>

  <!-- ══ TR – CROSS (coral) ══ -->
  <rect x="135" y="52"  width="12" height="54" rx="4" fill="white" clip-path="url(#sc)"/>
  <rect x="115" y="73"  width="52" height="12" rx="4" fill="white" clip-path="url(#sc)"/>

  <!-- ══ BL – LOCK (gold) ══ -->
  <!-- Shackle arc: peak at ~(58,138) well inside shield -->
  <path d="M46 150 C46 136 70 136 70 150"
        stroke="white" stroke-width="8" fill="none" stroke-linecap="round" clip-path="url(#sc)"/>
  <!-- Body: x=42→74, y=150→176 — verified inside left boundary -->
  <rect x="42" y="150" width="32" height="26" rx="5" fill="white" clip-path="url(#sc)"/>
  <!-- Keyhole bar -->
  <rect x="50" y="162" width="20" height="6" rx="3" fill="#d4a843" clip-path="url(#sc)"/>

  <!-- ══ BR – PIN (teal) ══ -->
  <!-- Circle: cx=142 cy=152 r=16 → x:126-158, y:136-168 -->
  <circle cx="142" cy="152" r="16"  fill="white" clip-path="url(#sc)"/>
  <!-- Tail: base y=164, tip y=182 — inside right boundary -->
  <polygon points="130,164 154,164 142,182" fill="white" clip-path="url(#sc)"/>
  <!-- Inner dot -->
  <circle cx="142" cy="152" r="7"   fill="#2a7a6e" clip-path="url(#sc)"/>

  <!-- ── Shield outline ── -->
  <path d="M18 36 L182 36 L182 132 C182 174 140 204 100 220 C60 204 18 174 18 132 Z"
        fill="none" stroke="rgba(255,255,255,0.28)" stroke-width="2"/>
</svg>
