<svg xmlns="http://www.w3.org/2000/svg" viewBox="0 0 100 100" fill="none">
  <defs>
    <clipPath id="sc">
      <path d="M50 8 L88 22 L88 55 C88 78 50 92 50 92 C50 92 12 78 12 55 L12 22 Z"/>
    </clipPath>
  </defs>

  <!-- Q top-left: navy -->
  <rect x="12" y="8" width="38" height="50" fill="#1a2744" clip-path="url(#sc)"/>
  <!-- Q top-right: coral -->
  <rect x="50" y="8" width="38" height="50" fill="#c85a52" clip-path="url(#sc)"/>
  <!-- Q bottom-left: gold -->
  <rect x="12" y="57" width="38" height="35" fill="#c9952a" clip-path="url(#sc)"/>
  <!-- Q bottom-right: teal -->
  <rect x="50" y="57" width="38" height="35" fill="#1e7a6a" clip-path="url(#sc)"/>

  <!-- Dividers -->
  <rect x="47" y="8" width="6" height="84" fill="#1a2744" clip-path="url(#sc)"/>
  <rect x="12" y="54" width="76" height="6" fill="#1a2744" clip-path="url(#sc)"/>

  <!-- Center diamond -->
  <rect x="46" y="52" width="8" height="8" fill="white" transform="rotate(45 50 56)" clip-path="url(#sc)"/>

  <!-- House (top-left) -->
  <polygon points="31,17 18,28 44,28" fill="white" clip-path="url(#sc)"/>
  <rect x="20" y="28" width="22" height="14" fill="white" clip-path="url(#sc)"/>
  <rect x="27" y="34" width="8" height="8" fill="#1a2744" clip-path="url(#sc)"/>

  <!-- Plus (top-right) -->
  <rect x="63" y="16" width="7" height="24" rx="2" fill="white" clip-path="url(#sc)"/>
  <rect x="55" y="22" width="23" height="8" rx="2" fill="white" clip-path="url(#sc)"/>

  <!-- Lock (bottom-left) -->
  <path d="M22 68 C22 61 42 61 42 68" stroke="white" stroke-width="4" fill="none" stroke-linecap="round" clip-path="url(#sc)"/>
  <rect x="18" y="68" width="24" height="18" rx="4" fill="white" clip-path="url(#sc)"/>
  <circle cx="30" cy="75" r="3.5" fill="#c9952a" clip-path="url(#sc)"/>
  <rect x="28.5" y="77" width="3" height="5" rx="1" fill="#c9952a" clip-path="url(#sc)"/>

  <!-- Pin (bottom-right) -->
  <ellipse cx="69" cy="64" rx="7" ry="8" fill="white" clip-path="url(#sc)"/>
  <circle cx="69" cy="64" r="3" fill="#1e7a6a" clip-path="url(#sc)"/>
  <path d="M69 72 L64 85" stroke="white" stroke-width="4" stroke-linecap="round" clip-path="url(#sc)"/>

  <!-- Shield border -->
  <path d="M50 8 L88 22 L88 55 C88 78 50 92 50 92 C50 92 12 78 12 55 L12 22 Z"
        fill="none" stroke="rgba(255,255,255,0.25)" stroke-width="1.2"/>
</svg>
