<svg xmlns="http://www.w3.org/2000/svg" viewBox="0 0 200 232" fill="none">
  <defs>
    <clipPath id="sc">
      <path d="M18 52 Q100 14 182 52 L182 132 C182 174 140 204 100 220 C60 204 18 174 18 132 Z"/>
    </clipPath>
  </defs>

  <!-- ── Quadrant fills — 4px gap at x=98–102, y=130–134 ── -->
  <rect x="0"   y="0"   width="98"  height="130" fill="#1a2744" clip-path="url(#sc)"/>
  <rect x="102" y="0"   width="98"  height="130" fill="#c85a52" clip-path="url(#sc)"/>
  <rect x="0"   y="134" width="98"  height="90"  fill="#d4a843" clip-path="url(#sc)"/>
  <rect x="102" y="134" width="98"  height="90"  fill="#2a7a6e" clip-path="url(#sc)"/>

  <!-- ── Centre diamond (flotte dans l'espace transparent) ── -->
  <polygon points="100,120 114,132 100,144 86,132" fill="white" clip-path="url(#sc)"/>

  <!-- ══ TL – HOUSE ══ -->
  <polygon points="59,55 34,76 84,76"              fill="white" clip-path="url(#sc)"/>
  <rect x="37" y="76" width="44" height="36"       fill="white" clip-path="url(#sc)"/>
  <rect x="47" y="85" width="24" height="27" rx="2" fill="#1a2744" clip-path="url(#sc)"/>

  <!-- ══ TR – CROSS ══ -->
  <rect x="136" y="56"  width="12" height="52" rx="4" fill="white" clip-path="url(#sc)"/>
  <rect x="116" y="74"  width="52" height="12" rx="4" fill="white" clip-path="url(#sc)"/>

  <!-- ══ BL – LOCK ══ -->
  <path d="M47 152 C47 138 71 138 71 152"
        stroke="white" stroke-width="8" fill="none" stroke-linecap="round" clip-path="url(#sc)"/>
  <rect x="43" y="152" width="32" height="26" rx="5" fill="white" clip-path="url(#sc)"/>
  <rect x="51" y="164" width="18" height="6"  rx="3" fill="#d4a843" clip-path="url(#sc)"/>

  <!-- ══ BR – PIN ══ -->
  <circle cx="142" cy="154" r="16"  fill="white" clip-path="url(#sc)"/>
  <polygon points="130,165 154,165 142,183"         fill="white" clip-path="url(#sc)"/>
  <circle cx="142" cy="154" r="7"   fill="#2a7a6e" clip-path="url(#sc)"/>

  <!-- ── Shield outline ── -->
  <path d="M18 52 Q100 14 182 52 L182 132 C182 174 140 204 100 220 C60 204 18 174 18 132 Z"
        fill="none" stroke="rgba(255,255,255,0.28)" stroke-width="2"/>
</svg>
